HIERARCHY
ROOT Hips
{
	OFFSET 0 0 0
	CHANNELS 6 Xposition Yposition Zposition Yrotation Xrotation Zrotation
	JOINT Spine
	{
		OFFSET -0 8.00685 -2.55218
		CHANNELS 3 Yrotation Xrotation Zrotation
		JOINT Spine1
		{
			OFFSET -0 7.45793 0
			CHANNELS 3 Yrotation Xrotation Zrotation
			JOINT Spine2
			{
				OFFSET -0 7.45793 0
				CHANNELS 3 Yrotation Xrotation Zrotation
				JOINT Spine3
				{
					OFFSET -0 7.45793 0
					CHANNELS 3 Yrotation Xrotation Zrotation
					JOINT Neck
					{
						OFFSET -0 14.9948 3.55218
						CHANNELS 3 Yrotation Xrotation Zrotation
						JOINT Head
						{
							OFFSET -0 10.0086 0
							CHANNELS 3 Yrotation Xrotation Zrotation
							End Site
							{
								OFFSET 0 15 0
							}
						}
					}
					JOINT LeftShoulder
					{
						OFFSET 1.66809 3.17829 3.33619
						CHANNELS 3 Yrotation Xrotation Zrotation
						JOINT LeftArm
						{
							OFFSET 18.653 0 0
							CHANNELS 3 Yrotation Xrotation Zrotation
							JOINT LeftForeArm
							{
								OFFSET 22.9554 0 0
								CHANNELS 3 Yrotation Xrotation Zrotation
								JOINT LeftHand
								{
									OFFSET 21.8677 0 0
									CHANNELS 3 Yrotation Xrotation Zrotation
									JOINT LeftHandThumb1
									{
										OFFSET 4.74436 0 2.66649
										CHANNELS 3 Yrotation Xrotation Zrotation
										JOINT LeftHandThumb2
										{
											OFFSET 3 0 1
											CHANNELS 3 Yrotation Xrotation Zrotation
											JOINT LeftHandThumb3
											{
												OFFSET 2.1 0 0
												CHANNELS 3 Yrotation Xrotation Zrotation
												JOINT LeftHandThumb4
												{
													OFFSET 1.305 0 0
													CHANNELS 3 Yrotation Xrotation Zrotation
													End Site
													{
														OFFSET -0 0 0
													}
												}
											}
										}
									}
									JOINT LeftHandIndex1
									{
										OFFSET 8.93865 0 3.46871
										CHANNELS 3 Yrotation Xrotation Zrotation
										JOINT LeftHandIndex2
										{
											OFFSET 3.5 0 0
											CHANNELS 3 Yrotation Xrotation Zrotation
											JOINT LeftHandIndex3
											{
												OFFSET 2.45 0 0
												CHANNELS 3 Yrotation Xrotation Zrotation
												JOINT LeftHandIndex4
												{
													OFFSET 1.5225 0 0
													CHANNELS 3 Yrotation Xrotation Zrotation
													End Site
													{
														OFFSET -0 0 0
													}
												}
											}
										}
									}
									JOINT LeftHandMiddle1
									{
										OFFSET 8.93983 0 1.07882
										CHANNELS 3 Yrotation Xrotation Zrotation
										JOINT LeftHandMiddle2
										{
											OFFSET 4.6 0 0
											CHANNELS 3 Yrotation Xrotation Zrotation
											JOINT LeftHandMiddle3
											{
												OFFSET 3.22 0 0
												CHANNELS 3 Yrotation Xrotation Zrotation
												JOINT LeftHandMiddle4
												{
													OFFSET 2.001 0 0
													CHANNELS 3 Yrotation Xrotation Zrotation
													End Site
													{
														OFFSET -0 0 0
													}
												}
											}
										}
									}
									JOINT LeftHandRing1
									{
										OFFSET 8.64101 0 -1.31106
										CHANNELS 3 Yrotation Xrotation Zrotation
										JOINT LeftHandRing2
										{
											OFFSET 3.75 0 0
											CHANNELS 3 Yrotation Xrotation Zrotation
											JOINT LeftHandRing3
											{
												OFFSET 2.625 0 0
												CHANNELS 3 Yrotation Xrotation Zrotation
												JOINT LeftHandRing4
												{
													OFFSET 1.63125 0 0
													CHANNELS 3 Yrotation Xrotation Zrotation
													End Site
													{
														OFFSET -0 0 0
													}
												}
											}
										}
									}
									JOINT LeftHandPinky1
									{
										OFFSET 8.04219 0 -3.70094
										CHANNELS 3 Yrotation Xrotation Zrotation
										JOINT LeftHandPinky2
										{
											OFFSET 2.875 0 0
											CHANNELS 3 Yrotation Xrotation Zrotation
											JOINT LeftHandPinky3
											{
												OFFSET 2.0125 0 0
												CHANNELS 3 Yrotation Xrotation Zrotation
												JOINT LeftHandPinky4
												{
													OFFSET 1.25062 0 0
													CHANNELS 3 Yrotation Xrotation Zrotation
													End Site
													{
														OFFSET -0 0 0
													}
												}
											}
										}
									}
								}
							}
						}
					}
					JOINT RightShoulder
					{
						OFFSET -1.66809 3.17829 3.33619
						CHANNELS 3 Yrotation Xrotation Zrotation
						JOINT RightArm
						{
							OFFSET -18.653 0 0
							CHANNELS 3 Yrotation Xrotation Zrotation
							JOINT RightForeArm
							{
								OFFSET -22.9554 0 0
								CHANNELS 3 Yrotation Xrotation Zrotation
								JOINT RightHand
								{
									OFFSET -21.8677 0 0
									CHANNELS 3 Yrotation Xrotation Zrotation
									JOINT RightHandThumb1
									{
										OFFSET -4.93523 0 1.98499
										CHANNELS 3 Yrotation Xrotation Zrotation
										JOINT RightHandThumb2
										{
											OFFSET -3 0 1
											CHANNELS 3 Yrotation Xrotation Zrotation
											JOINT RightHandThumb3
											{
												OFFSET -2.1 0 0
												CHANNELS 3 Yrotation Xrotation Zrotation
												JOINT RightHandThumb4
												{
													OFFSET -1.305 0 0
													CHANNELS 3 Yrotation Xrotation Zrotation
													End Site
													{
														OFFSET -0 0 0
													}
												}
											}
										}
									}
									JOINT RightHandIndex1
									{
										OFFSET -9.43254 0 2.90277
										CHANNELS 3 Yrotation Xrotation Zrotation
										JOINT RightHandIndex2
										{
											OFFSET -3.5 0 0
											CHANNELS 3 Yrotation Xrotation Zrotation
											JOINT RightHandIndex3
											{
												OFFSET -2.45 0 0
												CHANNELS 3 Yrotation Xrotation Zrotation
												JOINT RightHandIndex4
												{
													OFFSET -1.5225 0 0
													CHANNELS 3 Yrotation Xrotation Zrotation
													End Site
													{
														OFFSET -0 0 0
													}
												}
											}
										}
									}
									JOINT RightHandMiddle1
									{
										OFFSET -9.35706 0 0.88564
										CHANNELS 3 Yrotation Xrotation Zrotation
										JOINT RightHandMiddle2
										{
											OFFSET -4.6 0 0
											CHANNELS 3 Yrotation Xrotation Zrotation
											JOINT RightHandMiddle3
											{
												OFFSET -3.22 0 0
												CHANNELS 3 Yrotation Xrotation Zrotation
												JOINT RightHandMiddle4
												{
													OFFSET -2.001 0 0
													CHANNELS 3 Yrotation Xrotation Zrotation
													End Site
													{
														OFFSET -0 0 0
													}
												}
											}
										}
									}
									JOINT RightHandRing1
									{
										OFFSET -8.98158 0 -1.13149
										CHANNELS 3 Yrotation Xrotation Zrotation
										JOINT RightHandRing2
										{
											OFFSET -3.75 0 0
											CHANNELS 3 Yrotation Xrotation Zrotation
											JOINT RightHandRing3
											{
												OFFSET -2.625 0 0
												CHANNELS 3 Yrotation Xrotation Zrotation
												JOINT RightHandRing4
												{
													OFFSET -1.63125 0 0
													CHANNELS 3 Yrotation Xrotation Zrotation
													End Site
													{
														OFFSET -0 0 0
													}
												}
											}
										}
									}
									JOINT RightHandPinky1
									{
										OFFSET -8.3061 0 -3.14863
										CHANNELS 3 Yrotation Xrotation Zrotation
										JOINT RightHandPinky2
										{
											OFFSET -2.875 0 0
											CHANNELS 3 Yrotation Xrotation Zrotation
											JOINT RightHandPinky3
											{
												OFFSET -2.0125 0 0
												CHANNELS 3 Yrotation Xrotation Zrotation
												JOINT RightHandPinky4
												{
													OFFSET -1.25062 0 0
													CHANNELS 3 Yrotation Xrotation Zrotation
													End Site
													{
														OFFSET -0 0 0
													}
												}
											}
										}
									}
								}
							}
						}
					}
				}
			}
		}
	}
	JOINT LeftUpLeg
	{
		OFFSET 10.0086 -3.33619 3
		CHANNELS 3 Yrotation Xrotation Zrotation
		JOINT LeftLeg
		{
			OFFSET -0 -43.585 2.33533
			CHANNELS 3 Yrotation Xrotation Zrotation
			JOINT LeftFoot
			{
				OFFSET -0 -36.8654 -2.33533
				CHANNELS 3 Yrotation Xrotation Zrotation
				JOINT LeftToeBase
				{
					OFFSET -0 -9.43469 9.49123
					CHANNELS 3 Yrotation Xrotation Zrotation
					End Site
					{
						OFFSET 0 0 5
					}
				}
			}
		}
	}
	JOINT RightUpLeg
	{
		OFFSET -10.0086 -3.33619 3
		CHANNELS 3 Yrotation Xrotation Zrotation
		JOINT RightLeg
		{
			OFFSET -0 -43.585 2.33533
			CHANNELS 3 Yrotation Xrotation Zrotation
			JOINT RightFoot
			{
				OFFSET -0 -36.8654 -2.33533
				CHANNELS 3 Yrotation Xrotation Zrotation
				JOINT RightToeBase
				{
					OFFSET -0 -9.43469 9.49123
					CHANNELS 3 Yrotation Xrotation Zrotation
					End Site
					{
						OFFSET 0 0 5
					}
				}
			}
		}
	}
}
MOTION
Frames: 4
Frame Time: 0.0047619
-6.511741 93.416864 23.802307 -22.292658 5.968751 -3.326316 3.826044 1.252423 4.416452 3.485918 1.053838 3.190865 0.773457 1.020418 1.903784 0.073666 0.915993 0.848021 22.474075 -6.852200 -3.100181 9.828061 -14.462283 -2.325525 23.862003 7.755232 11.676933 -45.096158 18.164610 -43.116796 -45.848780 2.169725 11.110701 38.299710 -33.063337 -38.742932 18.024969 -16.638157 -3.665703 20.950394 -19.002284 -4.710461 -69.156529 0.035066 -15.844308 -0.000012 0.000005 12.499999 -0.000012 0.000005 12.499999 0.000004 -0.000002 9.999999 0.000001 0.000004 5.000002 0.000006 0.000085 12.357459 0.000006 0.000085 12.357459 -0.000010 0.000069 9.885970 -0.000012 0.000041 4.942988 0.000009 0.000208 8.832814 0.000009 0.000208 8.832814 -0.000005 0.000154 7.066251 -0.000016 0.000075 3.533124 0.000001 0.000048 -2.436433 0.000001 0.000048 -2.436433 -0.000004 0.000034 -1.949154 0.000010 0.000020 -0.974571 -174.725721 -0.002966 -179.935598 1.996365 -1.852412 -8.901934 17.344738 -25.861353 -2.167990 25.162526 -6.205992 -21.477203 -167.358856 6.735128 117.866620 1.426746 -0.121970 -8.856124 1.641864 -0.121194 -10.185385 -44.238465 19.616326 -2.321465 -0.000012 -0.000001 -12.499998 -0.000012 -0.000001 -12.499998 0.000001 -0.000008 -10.000000 0.000009 0.000002 -5.000002 -0.000012 -0.000001 -12.499998 -0.000012 -0.000001 -12.499998 0.000001 -0.000008 -10.000000 0.000009 0.000002 -5.000002 -0.000006 -0.000010 10.220463 -0.000006 -0.000010 10.220463 -0.000001 0.000000 8.176369 -0.000009 0.000013 4.088186 -0.000004 -0.000006 66.604386 -0.000004 -0.000006 66.604386 0.000003 0.000005 53.283505 0.000005 0.000000 26.641732 18.024969 -16.638157 -3.665703 11.745700 -6.466679 -8.268055 0.000000 7.521134 0.000000 -4.735561 -2.007190 16.536420 0.000000 -5.089326 0.000000 121.928362 -67.272421 -154.989311 180.000000 65.750464 180.000000 -47.005222 -25.853673 -4.271315 0.000000 -18.364845 0.000000
-6.514185 93.413861 23.799606 -22.295143 5.966581 -3.324252 3.829095 1.253466 4.410801 3.493272 1.039310 3.192111 0.758051 1.015999 1.915958 0.053856 0.930088 0.863102 22.491261 -6.807441 -3.084157 9.841204 -14.446558 -2.349176 23.882906 7.748705 11.679951 -45.113539 18.175171 -43.152693 -45.821915 2.169104 11.147544 38.332772 -33.045538 -38.850840 18.024969 -16.638157 -3.665703 20.950394 -19.002284 -4.710461 -69.156529 0.035066 -15.844308 -0.000012 0.000005 12.499999 -0.000012 0.000005 12.499999 0.000004 -0.000002 9.999999 0.000001 0.000004 5.000002 0.000006 0.000085 12.357459 0.000006 0.000085 12.357459 -0.000010 0.000069 9.885970 -0.000012 0.000041 4.942988 0.000009 0.000208 8.832814 0.000009 0.000208 8.832814 -0.000005 0.000154 7.066251 -0.000016 0.000075 3.533124 0.000001 0.000048 -2.436433 0.000001 0.000048 -2.436433 -0.000004 0.000034 -1.949154 0.000010 0.000020 -0.974571 -174.725721 -0.002966 -179.935598 2.027864 -1.838506 -8.910068 17.388748 -25.874222 -2.190024 25.078657 -6.174419 -21.469356 -167.316895 6.761193 117.884521 1.426746 -0.121970 -8.856124 1.641864 -0.121194 -10.185385 -44.238465 19.616326 -2.321465 -0.000012 -0.000001 -12.499998 -0.000012 -0.000001 -12.499998 0.000001 -0.000008 -10.000000 0.000009 0.000002 -5.000002 -0.000012 -0.000001 -12.499998 -0.000012 -0.000001 -12.499998 0.000001 -0.000008 -10.000000 0.000009 0.000002 -5.000002 -0.000006 -0.000010 10.220463 -0.000006 -0.000010 10.220463 -0.000001 0.000000 8.176369 -0.000009 0.000013 4.088186 -0.000004 -0.000006 66.604386 -0.000004 -0.000006 66.604386 0.000003 0.000005 53.283505 0.000005 0.000000 26.641732 18.024969 -16.638157 -3.665703 11.722936 -6.467059 -8.270692 0.000000 7.512841 0.000000 -4.702587 -1.980997 16.603607 0.000000 -5.088220 0.000000 121.942163 -67.303691 -154.982553 180.000000 65.748943 180.000000 -47.009181 -25.927006 -4.258930 0.000000 -18.264255 0.000000
-6.517893 93.414294 23.795627 -22.293774 5.964685 -3.319132 3.832100 1.240546 4.410203 3.496075 1.048387 3.191026 0.760018 1.014485 1.915230 0.053713 0.937965 0.860113 22.491442 -6.803482 -3.065095 9.837810 -14.409869 -2.319921 23.874941 7.761985 11.688023 -45.078252 18.138015 -43.132205 -45.820725 2.192847 11.147323 38.380461 -33.018638 -38.938159 18.024969 -16.638157 -3.665703 20.950394 -19.002284 -4.710461 -69.156529 0.035066 -15.844308 -0.000012 0.000005 12.499999 -0.000012 0.000005 12.499999 0.000004 -0.000002 9.999999 0.000001 0.000004 5.000002 0.000006 0.000085 12.357459 0.000006 0.000085 12.357459 -0.000010 0.000069 9.885970 -0.000012 0.000041 4.942988 0.000009 0.000208 8.832814 0.000009 0.000208 8.832814 -0.000005 0.000154 7.066251 -0.000016 0.000075 3.533124 0.000001 0.000048 -2.436433 0.000001 0.000048 -2.436433 -0.000004 0.000034 -1.949154 0.000010 0.000020 -0.974571 -174.725721 -0.002966 -179.935598 2.032986 -1.819161 -8.900608 17.389910 -25.912980 -2.185949 25.009574 -6.099808 -21.475616 -167.276438 6.820512 117.897352 1.426746 -0.121970 -8.856124 1.641864 -0.121194 -10.185385 -44.238465 19.616326 -2.321465 -0.000012 -0.000001 -12.499998 -0.000012 -0.000001 -12.499998 0.000001 -0.000008 -10.000000 0.000009 0.000002 -5.000002 -0.000012 -0.000001 -12.499998 -0.000012 -0.000001 -12.499998 0.000001 -0.000008 -10.000000 0.000009 0.000002 -5.000002 -0.000006 -0.000010 10.220463 -0.000006 -0.000010 10.220463 -0.000001 0.000000 8.176369 -0.000009 0.000013 4.088186 -0.000004 -0.000006 66.604386 -0.000004 -0.000006 66.604386 0.000003 0.000005 53.283505 0.000005 0.000000 26.641732 18.024969 -16.638157 -3.665703 11.730886 -6.465405 -8.276322 0.000000 7.514796 0.000000 -4.726672 -2.001621 16.614469 0.000000 -5.123758 0.000000 121.897716 -67.318011 -154.918278 180.000000 65.751186 180.000000 -46.997973 -25.913752 -4.254158 0.000000 -18.248770 0.000000
-6.520974 93.411554 23.793199 -22.302417 5.959172 -3.314396 3.843317 1.229407 4.410722 3.508677 1.050156 3.191559 0.756103 1.018153 1.917266 0.050073 0.941138 0.865478 22.473360 -6.733455 -3.063446 9.823909 -14.472370 -2.289523 23.871109 7.767129 11.693739 -45.099375 18.143231 -43.124584 -45.800466 2.196525 11.152650 38.421633 -33.027082 -39.019990 18.024969 -16.638157 -3.665703 20.950394 -19.002284 -4.710461 -69.156529 0.035066 -15.844308 -0.000012 0.000005 12.499999 -0.000012 0.000005 12.499999 0.000004 -0.000002 9.999999 0.000001 0.000004 5.000002 0.000006 0.000085 12.357459 0.000006 0.000085 12.357459 -0.000010 0.000069 9.885970 -0.000012 0.000041 4.942988 0.000009 0.000208 8.832814 0.000009 0.000208 8.832814 -0.000005 0.000154 7.066251 -0.000016 0.000075 3.533124 0.000001 0.000048 -2.436433 0.000001 0.000048 -2.436433 -0.000004 0.000034 -1.949154 0.000010 0.000020 -0.974571 -174.725721 -0.002966 -179.935598 2.039820 -1.790959 -8.907765 17.392435 -25.956665 -2.186289 24.987772 -6.067177 -21.472852 -167.268099 6.821074 117.904640 1.426746 -0.121970 -8.856124 1.641864 -0.121194 -10.185385 -44.238465 19.616326 -2.321465 -0.000012 -0.000001 -12.499998 -0.000012 -0.000001 -12.499998 0.000001 -0.000008 -10.000000 0.000009 0.000002 -5.000002 -0.000012 -0.000001 -12.499998 -0.000012 -0.000001 -12.499998 0.000001 -0.000008 -10.000000 0.000009 0.000002 -5.000002 -0.000006 -0.000010 10.220463 -0.000006 -0.000010 10.220463 -0.000001 0.000000 8.176369 -0.000009 0.000013 4.088186 -0.000004 -0.000006 66.604386 -0.000004 -0.000006 66.604386 0.000003 0.000005 53.283505 0.000005 0.000000 26.641732 18.024969 -16.638157 -3.665703 11.687729 -6.466250 -8.271772 0.000000 7.519041 0.000000 -4.665576 -2.004896 16.562725 0.000000 -5.042063 0.000000 121.908652 -67.338552 -154.903445 180.000000 65.749204 180.000000 -46.999264 -25.947259 -4.267532 0.000000 -18.181777 0.000000
